<mxfile host="65bd71144e">
    <diagram id="2uiFzT-p7H2clm_2X7ja" name="Page-1">
        <mxGraphModel dx="1116" dy="797" grid="1" gridSize="10" guides="1" tooltips="1" connect="1" arrows="1" fold="1" page="1" pageScale="1" pageWidth="850" pageHeight="1100" math="0" shadow="0">
            <root>
                <mxCell id="0"/>
                <mxCell id="1" parent="0"/>
                <mxCell id="2" value="" style="edgeStyle=none;html=1;" edge="1" parent="1" source="3" target="5">
                    <mxGeometry relative="1" as="geometry"/>
                </mxCell>
                <mxCell id="3" value="Start" style="ellipse;whiteSpace=wrap;html=1;" vertex="1" parent="1">
                    <mxGeometry x="383" y="10" width="85" height="50" as="geometry"/>
                </mxCell>
                <mxCell id="4" value="" style="edgeStyle=none;html=1;entryX=0.5;entryY=0;entryDx=0;entryDy=0;" edge="1" parent="1" source="5" target="47">
                    <mxGeometry relative="1" as="geometry">
                        <mxPoint x="426.25" y="160" as="targetPoint"/>
                    </mxGeometry>
                </mxCell>
                <mxCell id="5" value="Lectura de la cantidad de vehículos" style="shape=parallelogram;perimeter=parallelogramPerimeter;whiteSpace=wrap;html=1;fixedSize=1;" vertex="1" parent="1">
                    <mxGeometry x="310.75" y="80" width="230" height="30" as="geometry"/>
                </mxCell>
                <mxCell id="6" style="edgeStyle=none;html=1;entryX=0.5;entryY=0;entryDx=0;entryDy=0;" edge="1" parent="1" source="10" target="12">
                    <mxGeometry relative="1" as="geometry">
                        <Array as="points">
                            <mxPoint x="210" y="438"/>
                        </Array>
                    </mxGeometry>
                </mxCell>
                <mxCell id="7" style="edgeStyle=none;html=1;entryX=0.5;entryY=0;entryDx=0;entryDy=0;" edge="1" parent="1" source="10" target="18">
                    <mxGeometry relative="1" as="geometry">
                        <Array as="points">
                            <mxPoint x="655" y="438"/>
                        </Array>
                    </mxGeometry>
                </mxCell>
                <mxCell id="8" style="edgeStyle=none;html=1;entryX=0.5;entryY=0;entryDx=0;entryDy=0;exitX=0;exitY=0.5;exitDx=0;exitDy=0;" edge="1" parent="1" source="10" target="14">
                    <mxGeometry relative="1" as="geometry">
                        <Array as="points">
                            <mxPoint x="351" y="438"/>
                        </Array>
                    </mxGeometry>
                </mxCell>
                <mxCell id="9" style="edgeStyle=none;html=1;entryX=0.5;entryY=0;entryDx=0;entryDy=0;exitX=1;exitY=0.5;exitDx=0;exitDy=0;" edge="1" parent="1" source="10" target="16">
                    <mxGeometry relative="1" as="geometry">
                        <Array as="points">
                            <mxPoint x="495" y="438"/>
                        </Array>
                    </mxGeometry>
                </mxCell>
                <mxCell id="10" value="Opción del carril" style="shape=hexagon;perimeter=hexagonPerimeter2;whiteSpace=wrap;html=1;fixedSize=1;" vertex="1" parent="1">
                    <mxGeometry x="382" y="418" width="87" height="40" as="geometry"/>
                </mxCell>
                <mxCell id="11" style="edgeStyle=none;html=1;entryX=0.5;entryY=0;entryDx=0;entryDy=0;" edge="1" parent="1" source="12" target="23">
                    <mxGeometry relative="1" as="geometry">
                        <Array as="points">
                            <mxPoint x="210" y="568"/>
                            <mxPoint x="425" y="568"/>
                        </Array>
                    </mxGeometry>
                </mxCell>
                <mxCell id="12" value="Valor del vehículo estilo automovil" style="whiteSpace=wrap;html=1;" vertex="1" parent="1">
                    <mxGeometry x="150" y="489" width="120" height="49" as="geometry"/>
                </mxCell>
                <mxCell id="13" style="edgeStyle=none;html=1;entryX=0.5;entryY=0;entryDx=0;entryDy=0;" edge="1" parent="1" source="14" target="23">
                    <mxGeometry relative="1" as="geometry">
                        <Array as="points">
                            <mxPoint x="350" y="568"/>
                            <mxPoint x="425" y="568"/>
                        </Array>
                    </mxGeometry>
                </mxCell>
                <mxCell id="14" value="Valor del vehículo estilo bus/taxi" style="whiteSpace=wrap;html=1;" vertex="1" parent="1">
                    <mxGeometry x="290.5" y="489" width="120" height="49" as="geometry"/>
                </mxCell>
                <mxCell id="15" style="edgeStyle=none;html=1;entryX=0.5;entryY=0;entryDx=0;entryDy=0;" edge="1" parent="1" source="16" target="23">
                    <mxGeometry relative="1" as="geometry">
                        <Array as="points">
                            <mxPoint x="495" y="568"/>
                            <mxPoint x="425" y="568"/>
                        </Array>
                    </mxGeometry>
                </mxCell>
                <mxCell id="16" value="Valor del vehículo estilo camión" style="whiteSpace=wrap;html=1;" vertex="1" parent="1">
                    <mxGeometry x="435" y="489" width="120" height="49" as="geometry"/>
                </mxCell>
                <mxCell id="17" style="edgeStyle=none;html=1;entryX=0.5;entryY=0;entryDx=0;entryDy=0;" edge="1" parent="1" source="18" target="23">
                    <mxGeometry relative="1" as="geometry">
                        <Array as="points">
                            <mxPoint x="655" y="568"/>
                            <mxPoint x="425" y="568"/>
                        </Array>
                    </mxGeometry>
                </mxCell>
                <mxCell id="18" value="Mensaje que se le muestra al usuario al seleccionar una opción incorrecta" style="whiteSpace=wrap;html=1;" vertex="1" parent="1">
                    <mxGeometry x="570" y="489" width="170" height="49" as="geometry"/>
                </mxCell>
                <mxCell id="19" value="1" style="text;html=1;align=center;verticalAlign=middle;resizable=0;points=[];autosize=1;strokeColor=none;fillColor=none;" vertex="1" parent="1">
                    <mxGeometry x="180" y="459" width="30" height="30" as="geometry"/>
                </mxCell>
                <mxCell id="20" value="2" style="text;html=1;align=center;verticalAlign=middle;resizable=0;points=[];autosize=1;strokeColor=none;fillColor=none;" vertex="1" parent="1">
                    <mxGeometry x="320" y="459" width="30" height="30" as="geometry"/>
                </mxCell>
                <mxCell id="21" value="3" style="text;html=1;align=center;verticalAlign=middle;resizable=0;points=[];autosize=1;strokeColor=none;fillColor=none;" vertex="1" parent="1">
                    <mxGeometry x="468" y="459" width="30" height="30" as="geometry"/>
                </mxCell>
                <mxCell id="22" value="" style="edgeStyle=none;html=1;" edge="1" parent="1" source="23" target="26">
                    <mxGeometry relative="1" as="geometry"/>
                </mxCell>
                <mxCell id="23" value="Lectura de la información si es hora pico o no" style="shape=parallelogram;perimeter=parallelogramPerimeter;whiteSpace=wrap;html=1;fixedSize=1;" vertex="1" parent="1">
                    <mxGeometry x="285" y="598" width="280" height="40" as="geometry"/>
                </mxCell>
                <mxCell id="24" value="" style="edgeStyle=none;html=1;exitX=1;exitY=0.5;exitDx=0;exitDy=0;entryX=0.5;entryY=0;entryDx=0;entryDy=0;" edge="1" parent="1" source="26" target="42">
                    <mxGeometry relative="1" as="geometry">
                        <mxPoint x="550" y="728" as="targetPoint"/>
                        <Array as="points">
                            <mxPoint x="558" y="718"/>
                        </Array>
                    </mxGeometry>
                </mxCell>
                <mxCell id="25" style="edgeStyle=none;html=1;entryX=0.5;entryY=0;entryDx=0;entryDy=0;" edge="1" parent="1" source="26" target="33">
                    <mxGeometry relative="1" as="geometry">
                        <mxPoint x="305.5" y="748" as="targetPoint"/>
                        <Array as="points">
                            <mxPoint x="180" y="718"/>
                        </Array>
                    </mxGeometry>
                </mxCell>
                <mxCell id="26" value="&lt;br&gt;Validación si es hora pico o no" style="rhombus;whiteSpace=wrap;html=1;" vertex="1" parent="1">
                    <mxGeometry x="365" y="658" width="120" height="120" as="geometry"/>
                </mxCell>
                <mxCell id="27" value="Otro" style="text;html=1;align=center;verticalAlign=middle;resizable=0;points=[];autosize=1;strokeColor=none;fillColor=none;" vertex="1" parent="1">
                    <mxGeometry x="605" y="458" width="50" height="30" as="geometry"/>
                </mxCell>
                <mxCell id="28" value="" style="edgeStyle=none;html=1;" edge="1" parent="1" source="29" target="43">
                    <mxGeometry relative="1" as="geometry">
                        <mxPoint x="558" y="922" as="targetPoint"/>
                    </mxGeometry>
                </mxCell>
                <mxCell id="29" value="Función que se encarga de calcular el monto menos el descuento por HP" style="shape=process;whiteSpace=wrap;html=1;backgroundOutline=1;" vertex="1" parent="1">
                    <mxGeometry x="428" y="849" width="260" height="40" as="geometry"/>
                </mxCell>
                <mxCell id="32" value="" style="edgeStyle=none;html=1;" edge="1" parent="1" source="33" target="35">
                    <mxGeometry relative="1" as="geometry"/>
                </mxCell>
                <mxCell id="33" value="Lectura si el usuario entra en el CV" style="shape=parallelogram;perimeter=parallelogramPerimeter;whiteSpace=wrap;html=1;fixedSize=1;" vertex="1" parent="1">
                    <mxGeometry x="50" y="749" width="260" height="40" as="geometry"/>
                </mxCell>
                <mxCell id="34" value="" style="edgeStyle=none;html=1;exitX=1;exitY=0.5;exitDx=0;exitDy=0;entryX=0.5;entryY=0;entryDx=0;entryDy=0;" edge="1" parent="1" source="35" target="40">
                    <mxGeometry relative="1" as="geometry">
                        <mxPoint x="295" y="909" as="targetPoint"/>
                        <Array as="points">
                            <mxPoint x="300" y="874"/>
                        </Array>
                    </mxGeometry>
                </mxCell>
                <mxCell id="35" value="&lt;br&gt;Validación si entra al &lt;br&gt;CV o no" style="rhombus;whiteSpace=wrap;html=1;" vertex="1" parent="1">
                    <mxGeometry x="110.25" y="809" width="139.5" height="129" as="geometry"/>
                </mxCell>
                <mxCell id="36" value="" style="edgeStyle=none;html=1;" edge="1" parent="1" source="37" target="38">
                    <mxGeometry relative="1" as="geometry"/>
                </mxCell>
                <mxCell id="37" value="Función que se encarga de calcular el monto mas el aumento por CV" style="shape=process;whiteSpace=wrap;html=1;backgroundOutline=1;" vertex="1" parent="1">
                    <mxGeometry x="175" y="980" width="250" height="40" as="geometry"/>
                </mxCell>
                <mxCell id="38" value="Variable que contiene el monto a pagar mas el aumento por CV" style="whiteSpace=wrap;html=1;" vertex="1" parent="1">
                    <mxGeometry x="165.75" y="1039" width="270" height="40" as="geometry"/>
                </mxCell>
                <mxCell id="39" style="edgeStyle=none;html=1;entryX=0.5;entryY=0;entryDx=0;entryDy=0;" edge="1" parent="1" source="40" target="37">
                    <mxGeometry relative="1" as="geometry"/>
                </mxCell>
                <mxCell id="40" value="Variable que contiene el porcentaj de aumento por CV" style="whiteSpace=wrap;html=1;" vertex="1" parent="1">
                    <mxGeometry x="220.75" y="910" width="160" height="50" as="geometry"/>
                </mxCell>
                <mxCell id="41" style="edgeStyle=none;html=1;entryX=0.5;entryY=0;entryDx=0;entryDy=0;" edge="1" parent="1" source="42" target="29">
                    <mxGeometry relative="1" as="geometry"/>
                </mxCell>
                <mxCell id="42" value="Variable que contiene el porcentaj de descuento por HP" style="whiteSpace=wrap;html=1;" vertex="1" parent="1">
                    <mxGeometry x="487" y="771" width="142" height="51" as="geometry"/>
                </mxCell>
                <mxCell id="43" value="Variable que contiene el monto a pagar menos el descuento por HP" style="whiteSpace=wrap;html=1;" vertex="1" parent="1">
                    <mxGeometry x="448" y="920" width="220" height="60" as="geometry"/>
                </mxCell>
                <mxCell id="44" value="" style="endArrow=none;html=1;entryX=0;entryY=0.5;entryDx=0;entryDy=0;exitX=0.5;exitY=1;exitDx=0;exitDy=0;" edge="1" parent="1" source="38" target="35">
                    <mxGeometry width="50" height="50" relative="1" as="geometry">
                        <mxPoint x="330" y="1038" as="sourcePoint"/>
                        <mxPoint x="380" y="988" as="targetPoint"/>
                        <Array as="points">
                            <mxPoint x="301" y="1110"/>
                            <mxPoint x="80" y="1110"/>
                            <mxPoint x="80" y="874"/>
                        </Array>
                    </mxGeometry>
                </mxCell>
                <mxCell id="45" value="" style="endArrow=none;html=1;exitX=0.5;exitY=1;exitDx=0;exitDy=0;" edge="1" parent="1" source="43">
                    <mxGeometry width="50" height="50" relative="1" as="geometry">
                        <mxPoint x="382" y="1308" as="sourcePoint"/>
                        <mxPoint x="190" y="1110" as="targetPoint"/>
                        <Array as="points">
                            <mxPoint x="560" y="1150"/>
                            <mxPoint x="190" y="1150"/>
                        </Array>
                    </mxGeometry>
                </mxCell>
                <mxCell id="46" style="edgeStyle=none;html=1;entryX=0.5;entryY=0;entryDx=0;entryDy=0;" edge="1" parent="1" source="47" target="166">
                    <mxGeometry relative="1" as="geometry">
                        <mxPoint x="425.25" y="200" as="targetPoint"/>
                    </mxGeometry>
                </mxCell>
                <mxCell id="47" value="Inicializar la variable que guarda el valor del promedio total de ingresos" style="whiteSpace=wrap;html=1;" vertex="1" parent="1">
                    <mxGeometry x="220.75" y="130" width="410" height="30" as="geometry"/>
                </mxCell>
                <mxCell id="48" style="edgeStyle=none;html=1;entryX=0.5;entryY=0;entryDx=0;entryDy=0;exitX=0.5;exitY=1;exitDx=0;exitDy=0;" edge="1" parent="1" source="166" target="75">
                    <mxGeometry relative="1" as="geometry">
                        <mxPoint x="426" y="260" as="targetPoint"/>
                        <mxPoint x="425.5" y="240" as="sourcePoint"/>
                    </mxGeometry>
                </mxCell>
                <mxCell id="50" value="" style="endArrow=classic;html=1;entryX=0.5;entryY=0;entryDx=0;entryDy=0;" edge="1" parent="1" target="60">
                    <mxGeometry width="50" height="50" relative="1" as="geometry">
                        <mxPoint x="425" y="1150" as="sourcePoint"/>
                        <mxPoint x="425" y="1190" as="targetPoint"/>
                    </mxGeometry>
                </mxCell>
                <mxCell id="51" value="" style="edgeStyle=none;html=1;entryX=0.5;entryY=0;entryDx=0;entryDy=0;exitX=0.5;exitY=1;exitDx=0;exitDy=0;" edge="1" parent="1" target="54" source="52">
                    <mxGeometry relative="1" as="geometry">
                        <mxPoint x="425.64571428571435" y="1298" as="sourcePoint"/>
                        <mxPoint x="425.43" y="1328" as="targetPoint"/>
                        <Array as="points">
                            <mxPoint x="425" y="1320"/>
                        </Array>
                    </mxGeometry>
                </mxCell>
                <mxCell id="52" value="Función que se encarga de calcular total de los ingresos" style="shape=process;whiteSpace=wrap;html=1;backgroundOutline=1;" vertex="1" parent="1">
                    <mxGeometry x="296" y="1258" width="257.56" height="40" as="geometry"/>
                </mxCell>
                <mxCell id="53" value="" style="edgeStyle=none;html=1;entryX=0.5;entryY=0;entryDx=0;entryDy=0;" edge="1" parent="1" source="54" target="79">
                    <mxGeometry relative="1" as="geometry">
                        <mxPoint x="425" y="1428" as="targetPoint"/>
                    </mxGeometry>
                </mxCell>
                <mxCell id="54" value="Variable que contiene el valor del monto total de ingresos" style="whiteSpace=wrap;html=1;" vertex="1" parent="1">
                    <mxGeometry x="320.43" y="1328" width="210" height="60" as="geometry"/>
                </mxCell>
                <mxCell id="55" value="" style="edgeStyle=none;html=1;" edge="1" parent="1" source="56" target="58">
                    <mxGeometry relative="1" as="geometry"/>
                </mxCell>
                <mxCell id="56" value="Función que se encarga de calcular promedio ingresos en base a la cantidad dada de vehículos" style="shape=process;whiteSpace=wrap;html=1;backgroundOutline=1;" vertex="1" parent="1">
                    <mxGeometry x="259.29" y="1528" width="332.93" height="40" as="geometry"/>
                </mxCell>
                <mxCell id="57" value="" style="edgeStyle=none;html=1;entryX=0.5;entryY=0;entryDx=0;entryDy=0;" edge="1" parent="1" source="58" target="62">
                    <mxGeometry relative="1" as="geometry">
                        <mxPoint x="424.9964285714284" y="1668" as="targetPoint"/>
                    </mxGeometry>
                </mxCell>
                <mxCell id="58" value="Valor que contiene el valor del promedio total de ingresos." style="whiteSpace=wrap;html=1;" vertex="1" parent="1">
                    <mxGeometry x="320.75" y="1598" width="210" height="40" as="geometry"/>
                </mxCell>
                <mxCell id="59" style="edgeStyle=none;html=1;entryX=0.5;entryY=0;entryDx=0;entryDy=0;" edge="1" parent="1" source="60" target="52">
                    <mxGeometry relative="1" as="geometry"/>
                </mxCell>
                <mxCell id="60" value="Mostrar en pantalla lo que debe &lt;br&gt;pagar el vehículo" style="shape=parallelogram;perimeter=parallelogramPerimeter;whiteSpace=wrap;html=1;fixedSize=1;" vertex="1" parent="1">
                    <mxGeometry x="320" y="1188" width="210" height="40" as="geometry"/>
                </mxCell>
                <mxCell id="61" value="" style="edgeStyle=none;html=1;" edge="1" parent="1" source="62" target="63">
                    <mxGeometry relative="1" as="geometry"/>
                </mxCell>
                <mxCell id="62" value="Imprimir en pantalla el total de &lt;br&gt;ingresos y el promedio final" style="shape=parallelogram;perimeter=parallelogramPerimeter;whiteSpace=wrap;html=1;fixedSize=1;" vertex="1" parent="1">
                    <mxGeometry x="310.75" y="1670" width="230" height="38" as="geometry"/>
                </mxCell>
                <mxCell id="63" value="Fin" style="ellipse;whiteSpace=wrap;html=1;" vertex="1" parent="1">
                    <mxGeometry x="383" y="1728" width="85" height="50" as="geometry"/>
                </mxCell>
                <mxCell id="68" value="" style="endArrow=none;html=1;" edge="1" parent="1">
                    <mxGeometry width="50" height="50" relative="1" as="geometry">
                        <mxPoint x="40" y="338" as="sourcePoint"/>
                        <mxPoint x="760" y="338" as="targetPoint"/>
                    </mxGeometry>
                </mxCell>
                <mxCell id="69" value="" style="endArrow=none;html=1;" edge="1" parent="1">
                    <mxGeometry width="50" height="50" relative="1" as="geometry">
                        <mxPoint x="40" y="338" as="sourcePoint"/>
                        <mxPoint x="50" y="1498" as="targetPoint"/>
                    </mxGeometry>
                </mxCell>
                <mxCell id="70" value="" style="endArrow=none;html=1;" edge="1" parent="1">
                    <mxGeometry width="50" height="50" relative="1" as="geometry">
                        <mxPoint x="50" y="1498" as="sourcePoint"/>
                        <mxPoint x="770" y="1498" as="targetPoint"/>
                    </mxGeometry>
                </mxCell>
                <mxCell id="71" value="" style="endArrow=none;html=1;" edge="1" parent="1">
                    <mxGeometry width="50" height="50" relative="1" as="geometry">
                        <mxPoint x="760" y="338" as="sourcePoint"/>
                        <mxPoint x="770" y="1498" as="targetPoint"/>
                    </mxGeometry>
                </mxCell>
                <mxCell id="72" value="Mientras que" style="text;html=1;align=center;verticalAlign=middle;resizable=0;points=[];autosize=1;strokeColor=none;fillColor=none;" vertex="1" parent="1">
                    <mxGeometry x="40" y="305" width="90" height="30" as="geometry"/>
                </mxCell>
                <mxCell id="73" value="El número de ciclo sea menos &lt;br&gt;que la cantidad dada de vehículos" style="text;html=1;align=center;verticalAlign=middle;resizable=0;points=[];autosize=1;strokeColor=none;fillColor=none;" vertex="1" parent="1">
                    <mxGeometry x="550" y="300" width="210" height="40" as="geometry"/>
                </mxCell>
                <mxCell id="74" style="edgeStyle=none;html=1;entryX=0.5;entryY=0;entryDx=0;entryDy=0;exitX=0.5;exitY=1;exitDx=0;exitDy=0;" edge="1" parent="1" source="75" target="77">
                    <mxGeometry relative="1" as="geometry">
                        <mxPoint x="426" y="340" as="targetPoint"/>
                    </mxGeometry>
                </mxCell>
                <mxCell id="75" value="Inicializar la variable que lleva el conteo de ciclos por cada vehículo de la cantidad dada" style="whiteSpace=wrap;html=1;" vertex="1" parent="1">
                    <mxGeometry x="180.75" y="230" width="490" height="30" as="geometry"/>
                </mxCell>
                <mxCell id="76" style="edgeStyle=none;html=1;entryX=0.5;entryY=0;entryDx=0;entryDy=0;" edge="1" parent="1" source="77" target="10">
                    <mxGeometry relative="1" as="geometry"/>
                </mxCell>
                <mxCell id="77" value="Lectura del carril a seleccionar" style="shape=parallelogram;perimeter=parallelogramPerimeter;whiteSpace=wrap;html=1;fixedSize=1;" vertex="1" parent="1">
                    <mxGeometry x="320.75" y="358" width="210" height="40" as="geometry"/>
                </mxCell>
                <mxCell id="78" style="edgeStyle=none;html=1;" edge="1" parent="1" source="79" target="56">
                    <mxGeometry relative="1" as="geometry"/>
                </mxCell>
                <mxCell id="79" value="Aumento de la variable que contiene el número de ciclo y aumenta en 1 al terminar el ciclo actual" style="whiteSpace=wrap;html=1;" vertex="1" parent="1">
                    <mxGeometry x="280" y="1418" width="290" height="40" as="geometry"/>
                </mxCell>
                <mxCell id="80" value="Si es HP" style="text;html=1;align=center;verticalAlign=middle;resizable=0;points=[];autosize=1;strokeColor=none;fillColor=none;" vertex="1" parent="1">
                    <mxGeometry x="483" y="688" width="70" height="30" as="geometry"/>
                </mxCell>
                <mxCell id="81" value="No es HP" style="text;html=1;align=center;verticalAlign=middle;resizable=0;points=[];autosize=1;strokeColor=none;fillColor=none;" vertex="1" parent="1">
                    <mxGeometry x="250" y="688" width="70" height="30" as="geometry"/>
                </mxCell>
                <mxCell id="82" value="Si" style="text;html=1;align=center;verticalAlign=middle;resizable=0;points=[];autosize=1;strokeColor=none;fillColor=none;" vertex="1" parent="1">
                    <mxGeometry x="255" y="849" width="30" height="30" as="geometry"/>
                </mxCell>
                <mxCell id="83" value="No" style="text;html=1;align=center;verticalAlign=middle;resizable=0;points=[];autosize=1;strokeColor=none;fillColor=none;" vertex="1" parent="1">
                    <mxGeometry x="80" y="849" width="40" height="30" as="geometry"/>
                </mxCell>
                <mxCell id="166" value="Inicializar la variable que guarda el valor del promedio total de ingresos" style="whiteSpace=wrap;html=1;" vertex="1" parent="1">
                    <mxGeometry x="220.75" y="180" width="410" height="30" as="geometry"/>
                </mxCell>
                <mxCell id="167" value="&lt;b&gt;Nomenclatura:&lt;br&gt;- CV&lt;/b&gt;: Carril Voluntario&lt;br&gt;- &lt;b&gt;HP&lt;/b&gt;: Hora Pico" style="shape=note;whiteSpace=wrap;html=1;backgroundOutline=1;darkOpacity=0.05;align=left;" vertex="1" parent="1">
                    <mxGeometry x="60" y="20" width="150" height="110" as="geometry"/>
                </mxCell>
            </root>
        </mxGraphModel>
    </diagram>
</mxfile>